Sean-Medium.ufo
<glyph name="exclam" format="1">
  <advance width="418"/>
  <unicode hex="0021"/>
  <outline>
    <contour>
      <point x="199" y="229" type="line"/>
      <point x="193" y="722" type="line"/>
      <point x="279" y="722" type="line"/>
      <point x="276" y="229" type="line"/>
    </contour>
    <contour>
      <point x="194" y="137" type="line"/>
      <point x="280" y="137" type="line"/>
      <point x="280" y="0" type="line"/>
      <point x="194" y="0" type="line"/>
    </contour>
  </outline>
</glyph>
<glyph name="quotedbl" format="1">
  <advance width="451"/>
  <unicode hex="0022"/>
  <outline>
    <contour>
      <point x="262" y="658" type="line"/>
      <point x="298" y="846" type="line"/>
      <point x="381" y="846" type="line"/>
      <point x="340" y="658" type="line"/>
    </contour>
    <contour>
      <point x="81" y="658" type="line"/>
      <point x="118" y="846" type="line"/>
      <point x="200" y="846" type="line"/>
      <point x="159" y="658" type="line"/>
    </contour>
  </outline>
</glyph>
<glyph name="numbersign" format="1">
  <advance width="664"/>
  <unicode hex="0023"/>
  <outline>
    <contour>
      <point x="55" y="228" type="line"/>
      <point x="71" y="291" type="line"/>
      <point x="161" y="294" type="line"/>
      <point x="208" y="449" type="line"/>
      <point x="122" y="446" type="line"/>
      <point x="138" y="509" type="line"/>
      <point x="227" y="512" type="line"/>
      <point x="286" y="706" type="line"/>
      <point x="350" y="706" type="line"/>
      <point x="292" y="515" type="line"/>
      <point x="441" y="520" type="line"/>
      <point x="503" y="720" type="line"/>
      <point x="568" y="720" type="line"/>
      <point x="507" y="522" type="line"/>
      <point x="583" y="525" type="line"/>
      <point x="574" y="461" type="line"/>
      <point x="487" y="458" type="line"/>
      <point x="439" y="304" type="line"/>
      <point x="516" y="307" type="line"/>
      <point x="503" y="244" type="line"/>
      <point x="420" y="241" type="line"/>
      <point x="357" y="38" type="line"/>
      <point x="293" y="38" type="line"/>
      <point x="355" y="239" type="line"/>
      <point x="207" y="233" type="line"/>
      <point x="145" y="30" type="line"/>
      <point x="80" y="30" type="line"/>
      <point x="141" y="231" type="line"/>
    </contour>
    <contour>
      <point x="273" y="451" type="line"/>
      <point x="226" y="297" type="line"/>
      <point x="374" y="302" type="line"/>
      <point x="422" y="456" type="line"/>
    </contour>
  </outline>
</glyph>
<glyph name="quotesingle" format="1">
  <advance width="269"/>
  <unicode hex="0027"/>
  <outline>
    <contour>
      <point x="85" y="658" type="line"/>
      <point x="124" y="846" type="line"/>
      <point x="202" y="846" type="line"/>
      <point x="163" y="658" type="line"/>
    </contour>
  </outline>
</glyph>
<glyph name="parenleft" format="1">
  <advance width="460"/>
  <unicode hex="0028"/>
  <outline>
    <contour>
      <point x="374" y="870" type="line"/>
      <point x="232" y="726"/>
      <point x="150" y="542"/>
      <point x="150" y="325" type="curve" smooth="yes"/>
      <point x="150" y="124"/>
      <point x="227" y="-69"/>
      <point x="368" y="-214" type="curve"/>
      <point x="310" y="-274" type="line"/>
      <point x="153" y="-113"/>
      <point x="66" y="102"/>
      <point x="66" y="325" type="curve" smooth="yes"/>
      <point x="66" y="555"/>
      <point x="154" y="763"/>
      <point x="308" y="921" type="curve"/>
    </contour>
  </outline>
</glyph>
<glyph name="parenright" format="1">
  <advance width="461"/>
  <unicode hex="0029"/>
  <outline>
    <contour>
      <point x="300" y="320" type="curve" smooth="yes"/>
      <point x="300" y="532"/>
      <point x="217" y="722"/>
      <point x="72" y="864" type="curve"/>
      <point x="131" y="924" type="line"/>
      <point x="291" y="768"/>
      <point x="385" y="562"/>
      <point x="385" y="322" type="curve" smooth="yes"/>
      <point x="385" y="94"/>
      <point x="294" y="-125"/>
      <point x="130" y="-285" type="curve"/>
      <point x="63" y="-234" type="line"/>
      <point x="215" y="-89"/>
      <point x="300" y="111"/>
    </contour>
  </outline>
</glyph>
<glyph name="plus" format="1">
  <advance width="757"/>
  <unicode hex="002B"/>
  <outline>
    <contour>
      <point x="100" y="283" type="line"/>
      <point x="100" y="361" type="line"/>
      <point x="347" y="361" type="line"/>
      <point x="348" y="588" type="line"/>
      <point x="427" y="588" type="line"/>
      <point x="427" y="360" type="line"/>
      <point x="664" y="360" type="line"/>
      <point x="664" y="282" type="line"/>
      <point x="426" y="282" type="line"/>
      <point x="426" y="18" type="line"/>
      <point x="346" y="18" type="line"/>
      <point x="347" y="283" type="line"/>
    </contour>
  </outline>
</glyph>
<glyph name="comma" format="1">
  <advance width="339"/>
  <unicode hex="002C"/>
  <outline>
    <contour>
      <point x="58" y="-112" type="line"/>
      <point x="152" y="92" type="line"/>
      <point x="247" y="92" type="line"/>
      <point x="127" y="-112" type="line"/>
    </contour>
  </outline>
</glyph>
<glyph name="hyphen" format="1">
  <advance width="403"/>
  <unicode hex="002D"/>
  <outline>
    <contour>
      <point x="64" y="311" type="line"/>
      <point x="346" y="311" type="line"/>
      <point x="346" y="233" type="line"/>
      <point x="64" y="233" type="line"/>
    </contour>
  </outline>
</glyph>
<glyph name="period" format="1">
  <advance width="342"/>
  <unicode hex="002E"/>
  <outline>
    <contour>
      <point x="129" y="160" type="line"/>
      <point x="220" y="160" type="line"/>
      <point x="220" y="0" type="line"/>
      <point x="129" y="0" type="line"/>
    </contour>
  </outline>
</glyph>
<glyph name="slash" format="1">
  <advance width="576"/>
  <unicode hex="002F"/>
  <outline>
    <contour>
      <point x="133" y="-68" type="line"/>
      <point x="47" y="-68" type="line"/>
      <point x="460" y="844" type="line"/>
      <point x="546" y="844" type="line"/>
    </contour>
  </outline>
</glyph>
<glyph name="zero" format="1">
  <advance width="581"/>
  <unicode hex="0030"/>
  <outline>
    <contour>
      <point x="141" y="257" type="curve" smooth="yes"/>
      <point x="141" y="156"/>
      <point x="199" y="64"/>
      <point x="291" y="64" type="curve" smooth="yes"/>
      <point x="382" y="64"/>
      <point x="448" y="155"/>
      <point x="448" y="261" type="curve" smooth="yes"/>
      <point x="448" y="358"/>
      <point x="390" y="447"/>
      <point x="297" y="447" type="curve" smooth="yes"/>
      <point x="204" y="447"/>
      <point x="141" y="358"/>
    </contour>
    <contour>
      <point x="294" y="-17" type="line" smooth="yes"/>
      <point x="159" y="-17"/>
      <point x="54" y="106"/>
      <point x="54" y="257" type="curve" smooth="yes"/>
      <point x="54" y="402"/>
      <point x="153" y="530"/>
      <point x="293" y="530" type="curve" smooth="yes"/>
      <point x="295" y="530" type="line" smooth="yes"/>
      <point x="434" y="530"/>
      <point x="534" y="402"/>
      <point x="534" y="256" type="curve" smooth="yes"/>
      <point x="534" y="107"/>
      <point x="430" y="-16"/>
      <point x="296" y="-17" type="curve"/>
    </contour>
  </outline>
</glyph>
<glyph name="one" format="1">
  <advance width="331"/>
  <unicode hex="0031"/>
  <outline>
    <contour>
      <point x="178" y="490" type="line"/>
      <point x="264" y="490" type="line"/>
      <point x="265" y="0" type="line"/>
      <point x="179" y="0" type="line"/>
      <point x="178" y="389" type="line"/>
      <point x="41" y="275" type="line"/>
      <point x="-12" y="332" type="line"/>
    </contour>
  </outline>
</glyph>
<glyph name="two" format="1">
  <advance width="459"/>
  <unicode hex="0032"/>
  <outline>
    <contour>
      <point x="319" y="345" type="curve" smooth="yes"/>
      <point x="319" y="404"/>
      <point x="281" y="460"/>
      <point x="209" y="460" type="curve" smooth="yes"/>
      <point x="155" y="460"/>
      <point x="114" y="416"/>
      <point x="77" y="363" type="curve"/>
      <point x="20" y="409" type="line"/>
      <point x="73" y="485"/>
      <point x="138" y="540"/>
      <point x="217" y="540" type="curve" smooth="yes"/>
      <point x="333" y="540"/>
      <point x="396" y="453"/>
      <point x="396" y="357" type="curve" smooth="yes"/>
      <point x="396" y="334"/>
      <point x="393" y="309"/>
      <point x="386" y="284" type="curve" smooth="yes"/>
      <point x="362" y="192"/>
      <point x="306" y="127"/>
      <point x="230" y="92" type="curve"/>
      <point x="451" y="92" type="line"/>
      <point x="451" y="15" type="line"/>
      <point x="19" y="15" type="line"/>
      <point x="19" y="92" type="line"/>
      <point x="145" y="92"/>
      <point x="242" y="146"/>
      <point x="297" y="258" type="curve" smooth="yes"/>
      <point x="311" y="287"/>
      <point x="319" y="318"/>
    </contour>
  </outline>
</glyph>
<glyph name="three" format="1">
  <advance width="554"/>
  <unicode hex="0033"/>
  <outline>
    <contour>
      <point x="366" y="316" type="curve" smooth="yes"/>
      <point x="366" y="402"/>
      <point x="295" y="446"/>
      <point x="202" y="446" type="curve" smooth="yes"/>
      <point x="148" y="446"/>
      <point x="101" y="426"/>
      <point x="60" y="383" type="curve"/>
      <point x="27" y="439" type="line"/>
      <point x="81" y="496"/>
      <point x="145" y="524"/>
      <point x="216" y="524" type="curve" smooth="yes"/>
      <point x="353" y="524"/>
      <point x="450" y="450"/>
      <point x="450" y="321" type="curve" smooth="yes"/>
      <point x="450" y="244"/>
      <point x="411" y="184"/>
      <point x="350" y="145" type="curve"/>
      <point x="416" y="122"/>
      <point x="487" y="59"/>
      <point x="487" y="-36" type="curve" smooth="yes"/>
      <point x="487" y="-160"/>
      <point x="342" y="-252"/>
      <point x="205" y="-252" type="curve" smooth="yes"/>
      <point x="155" y="-252"/>
      <point x="104" y="-241"/>
      <point x="57" y="-218" type="curve"/>
      <point x="88" y="-147" type="line"/>
      <point x="124" y="-166"/>
      <point x="162" y="-176"/>
      <point x="201" y="-176" type="curve" smooth="yes"/>
      <point x="286" y="-176"/>
      <point x="398" y="-119"/>
      <point x="398" y="-34" type="curve" smooth="yes"/>
      <point x="398" y="-21"/>
      <point x="395" y="-8"/>
      <point x="390" y="6" type="curve" smooth="yes"/>
      <point x="359" y="88"/>
      <point x="278" y="93"/>
      <point x="188" y="93" type="curve" smooth="yes"/>
      <point x="147" y="93" type="line"/>
      <point x="146" y="93" type="line"/>
      <point x="145" y="167" type="line"/>
      <point x="265" y="167"/>
      <point x="366" y="213"/>
    </contour>
  </outline>
</glyph>
<glyph name="four" format="1">
  <advance width="617"/>
  <unicode hex="0034"/>
  <outline>
    <contour>
      <point x="122" y="120" type="line"/>
      <point x="365" y="120" type="line"/>
      <point x="367" y="415" type="line"/>
    </contour>
    <contour>
      <point x="22" y="120" type="line"/>
      <point x="367" y="527" type="line"/>
      <point x="454" y="527" type="line"/>
      <point x="452" y="120" type="line"/>
      <point x="599" y="120" type="line"/>
      <point x="599" y="42" type="line"/>
      <point x="452" y="42" type="line"/>
      <point x="451" y="-222" type="line"/>
      <point x="364" y="-222" type="line"/>
      <point x="365" y="42" type="line"/>
      <point x="22" y="42" type="line"/>
    </contour>
  </outline>
</glyph>
<glyph name="five" format="1">
  <advance width="521"/>
  <unicode hex="0035"/>
  <outline>
    <contour>
      <point x="252" y="245" type="curve" smooth="yes"/>
      <point x="391" y="245"/>
      <point x="502" y="157"/>
      <point x="502" y="-8" type="curve" smooth="yes"/>
      <point x="502" y="-147"/>
      <point x="394" y="-250"/>
      <point x="251" y="-250" type="curve" smooth="yes"/>
      <point x="195" y="-250"/>
      <point x="133" y="-234"/>
      <point x="70" y="-198" type="curve"/>
      <point x="108" y="-130" type="line"/>
      <point x="155" y="-157"/>
      <point x="201" y="-169"/>
      <point x="243" y="-169" type="curve" smooth="yes"/>
      <point x="345" y="-169"/>
      <point x="420" y="-98"/>
      <point x="420" y="-3" type="curve" smooth="yes"/>
      <point x="420" y="112"/>
      <point x="340" y="167"/>
      <point x="243" y="167" type="curve" smooth="yes"/>
      <point x="221" y="167"/>
      <point x="197" y="164"/>
      <point x="172" y="160" type="curve"/>
      <point x="90" y="160" type="line"/>
      <point x="92" y="534" type="line"/>
      <point x="444" y="534" type="line"/>
      <point x="444" y="456" type="line"/>
      <point x="174" y="456" type="line"/>
      <point x="172" y="238" type="line"/>
      <point x="200" y="243"/>
      <point x="227" y="245"/>
    </contour>
  </outline>
</glyph>
<glyph name="six" format="1">
  <advance width="596"/>
  <unicode hex="0036"/>
  <outline>
    <contour>
      <point x="507" y="735" type="curve"/>
      <point x="539" y="659" type="line"/>
      <point x="441" y="626"/>
      <point x="351" y="573"/>
      <point x="274" y="503" type="curve" smooth="yes"/>
      <point x="223" y="457"/>
      <point x="177" y="401"/>
      <point x="156" y="340" type="curve"/>
      <point x="202" y="374"/>
      <point x="258" y="393"/>
      <point x="316" y="393" type="curve" smooth="yes"/>
      <point x="439" y="393"/>
      <point x="540" y="322"/>
      <point x="540" y="199" type="curve" smooth="yes"/>
      <point x="540" y="86"/>
      <point x="439" y="-10"/>
      <point x="313" y="-10" type="curve" smooth="yes"/>
      <point x="166" y="-10"/>
      <point x="59" y="107"/>
      <point x="59" y="254" type="curve" smooth="yes"/>
      <point x="59" y="358"/>
      <point x="115" y="455"/>
      <point x="189" y="533" type="curve"/>
      <point x="276" y="627"/>
      <point x="385" y="696"/>
    </contour>
    <contour>
      <point x="447" y="195" type="curve" smooth="yes"/>
      <point x="447" y="269"/>
      <point x="375" y="324"/>
      <point x="289" y="324" type="curve" smooth="yes"/>
      <point x="234" y="324"/>
      <point x="180" y="300"/>
      <point x="143" y="259" type="curve"/>
      <point x="146" y="154"/>
      <point x="225" y="79"/>
      <point x="315" y="79" type="curve" smooth="yes"/>
      <point x="387" y="79"/>
      <point x="447" y="127"/>
    </contour>
  </outline>
</glyph>
<glyph name="seven" format="1">
  <advance width="575"/>
  <unicode hex="0037"/>
  <outline>
    <contour>
      <point x="80" y="505" type="line"/>
      <point x="530" y="504" type="line"/>
      <point x="530" y="422" type="line"/>
      <point x="178" y="-222" type="line"/>
      <point x="86" y="-222" type="line"/>
      <point x="435" y="422" type="line"/>
      <point x="80" y="422" type="line"/>
    </contour>
  </outline>
</glyph>
<glyph name="eight" format="1">
  <advance width="585"/>
  <unicode hex="0038"/>
  <outline>
    <contour>
      <point x="293" y="603" type="curve" smooth="yes"/>
      <point x="239" y="603"/>
      <point x="183" y="573"/>
      <point x="183" y="511" type="curve" smooth="yes"/>
      <point x="183" y="454"/>
      <point x="243" y="412"/>
      <point x="309" y="379" type="curve"/>
      <point x="365" y="410"/>
      <point x="414" y="450"/>
      <point x="414" y="504" type="curve" smooth="yes"/>
      <point x="414" y="569"/>
      <point x="355" y="603"/>
    </contour>
    <contour>
      <point x="294" y="-31" type="curve" smooth="yes"/>
      <point x="185" y="-31"/>
      <point x="89" y="45"/>
      <point x="89" y="148" type="curve" smooth="yes"/>
      <point x="89" y="232"/>
      <point x="153" y="291"/>
      <point x="228" y="336" type="curve"/>
      <point x="159" y="378"/>
      <point x="104" y="436"/>
      <point x="104" y="512" type="curve" smooth="yes"/>
      <point x="104" y="613"/>
      <point x="198" y="680"/>
      <point x="299" y="680" type="curve" smooth="yes"/>
      <point x="406" y="680"/>
      <point x="498" y="610"/>
      <point x="498" y="508" type="curve" smooth="yes"/>
      <point x="498" y="437"/>
      <point x="448" y="380"/>
      <point x="384" y="341" type="curve"/>
      <point x="453" y="301"/>
      <point x="512" y="245"/>
      <point x="512" y="159" type="curve" smooth="yes"/>
      <point x="512" y="51"/>
      <point x="410" y="-31"/>
    </contour>
    <contour>
      <point x="311" y="44" type="curve" smooth="yes"/>
      <point x="375" y="44"/>
      <point x="437" y="82"/>
      <point x="437" y="151" type="curve" smooth="yes"/>
      <point x="437" y="218"/>
      <point x="370" y="263"/>
      <point x="300" y="298" type="curve"/>
      <point x="235" y="264"/>
      <point x="174" y="223"/>
      <point x="174" y="161" type="curve" smooth="yes"/>
      <point x="174" y="92"/>
      <point x="239" y="44"/>
    </contour>
  </outline>
</glyph>
<glyph name="nine" format="1">
  <advance width="602"/>
  <unicode hex="0039"/>
  <outline>
    <contour>
      <point x="295" y="509" type="curve" smooth="yes"/>
      <point x="449" y="509"/>
      <point x="537" y="376"/>
      <point x="537" y="238" type="curve" smooth="yes"/>
      <point x="537" y="122"/>
      <point x="476" y="17"/>
      <point x="395" y="-64" type="curve" smooth="yes"/>
      <point x="318" y="-141"/>
      <point x="224" y="-198"/>
      <point x="121" y="-231" type="curve"/>
      <point x="89" y="-150" type="line"/>
      <point x="228" y="-109"/>
      <point x="369" y="-8"/>
      <point x="429" y="124" type="curve"/>
      <point x="389" y="98"/>
      <point x="342" y="83"/>
      <point x="293" y="83" type="curve" smooth="yes"/>
      <point x="168" y="83"/>
      <point x="72" y="165"/>
      <point x="72" y="291" type="curve" smooth="yes"/>
      <point x="72" y="410"/>
      <point x="172" y="509"/>
    </contour>
    <contour>
      <point x="165" y="297" type="curve" smooth="yes"/>
      <point x="165" y="222"/>
      <point x="230" y="162"/>
      <point x="316" y="162" type="curve" smooth="yes"/>
      <point x="370" y="162"/>
      <point x="421" y="187"/>
      <point x="453" y="229" type="curve"/>
      <point x="453" y="230" type="line" smooth="yes"/>
      <point x="453" y="334"/>
      <point x="380" y="419"/>
      <point x="292" y="419" type="curve" smooth="yes"/>
      <point x="217" y="419"/>
      <point x="165" y="363"/>
    </contour>
  </outline>
</glyph>
<glyph name="colon" format="1">
  <advance width="367"/>
  <unicode hex="003A"/>
  <outline>
    <contour>
      <point x="146" y="150" type="line"/>
      <point x="233" y="150" type="line"/>
      <point x="233" y="0" type="line"/>
      <point x="146" y="0" type="line"/>
    </contour>
    <contour>
      <point x="146" y="490" type="line"/>
      <point x="233" y="490" type="line"/>
      <point x="233" y="341" type="line"/>
      <point x="146" y="341" type="line"/>
    </contour>
  </outline>
</glyph>
<glyph name="semicolon" format="1">
  <advance width="339"/>
  <unicode hex="003B"/>
  <outline>
    <contour>
      <point x="149" y="341" type="line"/>
      <point x="149" y="490" type="line"/>
      <point x="236" y="490" type="line"/>
      <point x="236" y="341" type="line"/>
    </contour>
    <contour>
      <point x="54" y="-95" type="line"/>
      <point x="154" y="92" type="line"/>
      <point x="245" y="92" type="line"/>
      <point x="131" y="-95" type="line"/>
    </contour>
  </outline>
</glyph>
<glyph name="less" format="1">
  <advance width="821"/>
  <unicode hex="003C"/>
  <outline>
    <contour>
      <point x="207" y="301" type="line"/>
      <point x="711" y="80" type="line"/>
      <point x="711" y="-7" type="line"/>
      <point x="111" y="257" type="line"/>
      <point x="111" y="343" type="line"/>
      <point x="701" y="613" type="line"/>
      <point x="701" y="527" type="line"/>
    </contour>
  </outline>
</glyph>
<glyph name="equal" format="1">
  <advance width="842"/>
  <unicode hex="003D"/>
  <outline>
    <contour>
      <point x="114" y="256" type="line"/>
      <point x="724" y="256" type="line"/>
      <point x="724" y="178" type="line"/>
      <point x="114" y="178" type="line"/>
    </contour>
    <contour>
      <point x="114" y="479" type="line"/>
      <point x="724" y="479" type="line"/>
      <point x="724" y="401" type="line"/>
      <point x="114" y="401" type="line"/>
    </contour>
  </outline>
</glyph>
<glyph name="greater" format="1">
  <advance width="821"/>
  <unicode hex="003E"/>
  <outline>
    <contour>
      <point x="128" y="-7" type="line"/>
      <point x="128" y="80" type="line"/>
      <point x="623" y="301" type="line"/>
      <point x="114" y="527" type="line"/>
      <point x="114" y="613" type="line"/>
      <point x="719" y="344" type="line"/>
      <point x="719" y="258" type="line"/>
    </contour>
  </outline>
</glyph>
<glyph name="question" format="1">
  <advance width="560"/>
  <unicode hex="003F"/>
  <outline>
    <contour>
      <point x="224" y="384" type="line"/>
      <point x="320" y="384"/>
      <point x="417" y="434"/>
      <point x="417" y="535" type="curve" smooth="yes"/>
      <point x="417" y="614"/>
      <point x="352" y="672"/>
      <point x="280" y="672" type="curve" smooth="yes"/>
      <point x="255" y="672"/>
      <point x="228" y="664"/>
      <point x="204" y="648" type="curve"/>
      <point x="173" y="720" type="line"/>
      <point x="209" y="741"/>
      <point x="246" y="750"/>
      <point x="282" y="750" type="curve" smooth="yes"/>
      <point x="399" y="750"/>
      <point x="502" y="652"/>
      <point x="502" y="532" type="curve" smooth="yes"/>
      <point x="502" y="406"/>
      <point x="411" y="340"/>
      <point x="311" y="317" type="curve"/>
      <point x="310" y="226" type="line"/>
      <point x="224" y="226" type="line"/>
    </contour>
    <contour>
      <point x="314" y="-10" type="line"/>
      <point x="218" y="-10" type="line"/>
      <point x="218" y="139" type="line"/>
      <point x="314" y="139" type="line"/>
    </contour>
  </outline>
</glyph>
<glyph name="at" format="1">
  <advance width="850"/>
  <unicode hex="0040"/>
  <outline>
    <contour>
      <point x="728" y="244" type="curve" smooth="yes"/>
      <point x="728" y="395"/>
      <point x="595" y="510"/>
      <point x="436" y="510" type="curve" smooth="yes"/>
      <point x="267" y="510"/>
      <point x="127" y="379"/>
      <point x="127" y="212" type="curve" smooth="yes"/>
      <point x="126" y="42"/>
      <point x="273" y="-91"/>
      <point x="447" y="-91" type="curve" smooth="yes"/>
      <point x="449" y="-91" type="line"/>
      <point x="530" y="-90"/>
      <point x="608" y="-59"/>
      <point x="667" y="-2" type="curve"/>
      <point x="713" y="-53" type="line"/>
      <point x="640" y="-121"/>
      <point x="544" y="-158"/>
      <point x="445" y="-158" type="curve" smooth="yes"/>
      <point x="233" y="-158"/>
      <point x="59" y="3"/>
      <point x="59" y="208" type="curve" smooth="yes"/>
      <point x="59" y="413"/>
      <point x="234" y="574"/>
      <point x="441" y="574" type="curve" smooth="yes"/>
      <point x="639" y="574"/>
      <point x="797" y="431"/>
      <point x="797" y="250" type="curve" smooth="yes"/>
      <point x="797" y="122"/>
      <point x="710" y="25"/>
      <point x="621" y="25" type="curve" smooth="yes"/>
      <point x="579" y="25"/>
      <point x="538" y="50"/>
      <point x="520" y="79" type="curve"/>
      <point x="489" y="54"/>
      <point x="451" y="40"/>
      <point x="411" y="40" type="curve" smooth="yes"/>
      <point x="309" y="40"/>
      <point x="240" y="115"/>
      <point x="240" y="215" type="curve" smooth="yes"/>
      <point x="240" y="322"/>
      <point x="330" y="411"/>
      <point x="441" y="411" type="curve" smooth="yes"/>
      <point x="524" y="411"/>
      <point x="597" y="364"/>
      <point x="597" y="283" type="curve" smooth="yes"/>
      <point x="597" y="238"/>
      <point x="572" y="196"/>
      <point x="572" y="148" type="curve" smooth="yes"/>
      <point x="572" y="115"/>
      <point x="594" y="88"/>
      <point x="626" y="88" type="curve" smooth="yes"/>
      <point x="674" y="88"/>
      <point x="728" y="150"/>
    </contour>
    <contour>
      <point x="309" y="213" type="curve" smooth="yes"/>
      <point x="309" y="146"/>
      <point x="355" y="96"/>
      <point x="416" y="96" type="curve" smooth="yes"/>
      <point x="454" y="96"/>
      <point x="488" y="118"/>
      <point x="503" y="152" type="curve"/>
      <point x="507" y="197"/>
      <point x="526" y="291"/>
      <point x="526" y="299" type="curve" smooth="yes"/>
      <point x="526" y="330"/>
      <point x="469" y="346"/>
      <point x="444" y="346" type="curve" smooth="yes"/>
      <point x="369" y="346"/>
      <point x="309" y="285"/>
    </contour>
  </outline>
</glyph>
<glyph name="A" format="1">
  <advance width="761"/>
  <unicode hex="0041"/>
  <outline>
    <contour>
      <point x="517" y="286" type="line"/>
      <point x="413" y="608" type="line"/>
      <point x="272" y="286" type="line"/>
    </contour>
    <contour>
      <point x="540" y="213" type="line"/>
      <point x="239" y="212" type="line"/>
      <point x="146" y="0" type="line"/>
      <point x="53" y="0" type="line"/>
      <point x="377" y="721" type="line"/>
      <point x="463" y="721" type="line"/>
      <point x="697" y="1" type="line"/>
      <point x="608" y="1" type="line"/>
    </contour>
  </outline>
</glyph>
<glyph name="B" format="1">
  <advance width="643"/>
  <unicode hex="0042"/>
  <outline>
    <contour>
      <point x="279" y="722" type="line" smooth="yes"/>
      <point x="411" y="722"/>
      <point x="528" y="677"/>
      <point x="528" y="545" type="curve" smooth="yes"/>
      <point x="528" y="479"/>
      <point x="491" y="431"/>
      <point x="434" y="402" type="curve"/>
      <point x="517" y="370"/>
      <point x="572" y="308"/>
      <point x="572" y="212" type="curve" smooth="yes"/>
      <point x="572" y="69"/>
      <point x="442" y="0"/>
      <point x="284" y="0" type="curve" smooth="yes"/>
      <point x="99" y="0" type="line"/>
      <point x="99" y="722" type="line"/>
    </contour>
    <contour>
      <point x="443" y="542" type="curve" smooth="yes"/>
      <point x="443" y="626"/>
      <point x="363" y="647"/>
      <point x="279" y="647" type="curve" smooth="yes"/>
      <point x="185" y="647" type="line"/>
      <point x="185" y="436" type="line"/>
      <point x="282" y="436" type="line" smooth="yes"/>
      <point x="370" y="436"/>
      <point x="443" y="471"/>
    </contour>
    <contour>
      <point x="284" y="75" type="line" smooth="yes"/>
      <point x="392" y="75"/>
      <point x="486" y="115"/>
      <point x="486" y="219" type="curve" smooth="yes"/>
      <point x="486" y="316"/>
      <point x="394" y="365"/>
      <point x="282" y="365" type="curve" smooth="yes"/>
      <point x="249" y="365"/>
      <point x="217" y="364"/>
      <point x="185" y="364" type="curve"/>
      <point x="185" y="75" type="line"/>
    </contour>
  </outline>
</glyph>
<glyph name="C" format="1">
  <advance width="684"/>
  <unicode hex="0043"/>
  <outline>
    <contour>
      <point x="417" y="78" type="curve" smooth="yes"/>
      <point x="502" y="78"/>
      <point x="566" y="102"/>
      <point x="623" y="145" type="curve"/>
      <point x="670" y="75" type="line"/>
      <point x="594" y="23"/>
      <point x="509" y="-7"/>
      <point x="407" y="-7" type="curve" smooth="yes"/>
      <point x="199" y="-7"/>
      <point x="72" y="136"/>
      <point x="72" y="355" type="curve" smooth="yes"/>
      <point x="72" y="585"/>
      <point x="207" y="732"/>
      <point x="415" y="732" type="curve" smooth="yes"/>
      <point x="517" y="732"/>
      <point x="594" y="705"/>
      <point x="667" y="660" type="curve"/>
      <point x="626" y="589" type="line"/>
      <point x="568" y="627"/>
      <point x="500" y="648"/>
      <point x="428" y="648" type="curve" smooth="yes"/>
      <point x="262" y="648"/>
      <point x="162" y="536"/>
      <point x="162" y="356" type="curve" smooth="yes"/>
      <point x="162" y="189"/>
      <point x="261" y="78"/>
    </contour>
  </outline>
</glyph>
<glyph name="D" format="1">
  <advance width="700"/>
  <unicode hex="0044"/>
  <outline>
    <contour>
      <point x="278" y="722" type="line" smooth="yes"/>
      <point x="510" y="722"/>
      <point x="650" y="590"/>
      <point x="650" y="350" type="curve" smooth="yes"/>
      <point x="650" y="132"/>
      <point x="541" y="0"/>
      <point x="322" y="0" type="curve" smooth="yes"/>
      <point x="71" y="0" type="line"/>
      <point x="71" y="722" type="line"/>
    </contour>
    <contour>
      <point x="560" y="344" type="curve" smooth="yes"/>
      <point x="560" y="524"/>
      <point x="461" y="636"/>
      <point x="292" y="636" type="curve" smooth="yes"/>
      <point x="157" y="636" type="line"/>
      <point x="157" y="86" type="line"/>
      <point x="291" y="86" type="line" smooth="yes"/>
      <point x="463" y="86"/>
      <point x="560" y="178"/>
    </contour>
  </outline>
</glyph>
<glyph name="E" format="1">
  <advance width="617"/>
  <unicode hex="0045"/>
  <outline>
    <contour>
      <point x="104" y="0" type="line"/>
      <point x="104" y="722" type="line"/>
      <point x="530" y="722" type="line"/>
      <point x="530" y="638" type="line"/>
      <point x="190" y="638" type="line"/>
      <point x="190" y="415" type="line"/>
      <point x="451" y="415" type="line"/>
      <point x="451" y="331" type="line"/>
      <point x="190" y="331" type="line"/>
      <point x="190" y="84" type="line"/>
      <point x="562" y="84" type="line"/>
      <point x="562" y="0" type="line"/>
    </contour>
  </outline>
</glyph>
<glyph name="F" format="1">
  <advance width="581"/>
  <unicode hex="0046"/>
  <outline>
    <contour>
      <point x="104" y="0" type="line"/>
      <point x="104" y="722" type="line"/>
      <point x="534" y="722" type="line"/>
      <point x="534" y="638" type="line"/>
      <point x="190" y="638" type="line"/>
      <point x="190" y="415" type="line"/>
      <point x="465" y="415" type="line"/>
      <point x="465" y="331" type="line"/>
      <point x="190" y="331" type="line"/>
      <point x="190" y="0" type="line"/>
    </contour>
  </outline>
</glyph>
<glyph name="G" format="1">
  <advance width="780"/>
  <unicode hex="0047"/>
  <outline>
    <contour>
      <point x="436" y="71" type="curve" smooth="yes"/>
      <point x="511" y="71"/>
      <point x="571" y="86"/>
      <point x="634" y="113" type="curve"/>
      <point x="633" y="267" type="line"/>
      <point x="483" y="267" type="line"/>
      <point x="483" y="347" type="line"/>
      <point x="713" y="347" type="line"/>
      <point x="713" y="76" type="line"/>
      <point x="624" y="22"/>
      <point x="527" y="-6"/>
      <point x="418" y="-6" type="curve" smooth="yes"/>
      <point x="201" y="-6"/>
      <point x="72" y="127"/>
      <point x="72" y="353" type="curve" smooth="yes"/>
      <point x="72" y="583"/>
      <point x="210" y="730"/>
      <point x="427" y="730" type="curve" smooth="yes"/>
      <point x="532" y="730"/>
      <point x="614" y="703"/>
      <point x="694" y="656" type="curve"/>
      <point x="655" y="584" type="line"/>
      <point x="589" y="624"/>
      <point x="520" y="645"/>
      <point x="437" y="645" type="curve" smooth="yes"/>
      <point x="267" y="645"/>
      <point x="162" y="534"/>
      <point x="160" y="357" type="curve"/>
      <point x="159" y="178"/>
      <point x="264" y="71"/>
    </contour>
  </outline>
</glyph>
<glyph name="H" format="1">
  <advance width="759"/>
  <unicode hex="0048"/>
  <outline>
    <contour>
      <point x="593" y="722" type="line"/>
      <point x="680" y="722" type="line"/>
      <point x="680" y="0" type="line"/>
      <point x="593" y="0" type="line"/>
      <point x="593" y="321" type="line"/>
      <point x="171" y="321" type="line"/>
      <point x="171" y="0" type="line"/>
      <point x="84" y="0" type="line"/>
      <point x="85" y="722" type="line"/>
      <point x="171" y="722" type="line"/>
      <point x="171" y="403" type="line"/>
      <point x="593" y="403" type="line"/>
    </contour>
  </outline>
</glyph>
<glyph name="I" format="1">
  <advance width="257"/>
  <unicode hex="0049"/>
  <outline>
    <contour>
      <point x="87" y="0" type="line"/>
      <point x="88" y="722" type="line"/>
      <point x="174" y="722" type="line"/>
      <point x="174" y="0" type="line"/>
    </contour>
  </outline>
</glyph>
<glyph name="J" format="1">
  <advance width="317"/>
  <unicode hex="004A"/>
  <outline>
    <contour>
      <point x="233" y="0" type="line" smooth="yes"/>
      <point x="233" y="-117"/>
      <point x="159" y="-231"/>
      <point x="38" y="-231" type="curve" smooth="yes"/>
      <point x="0" y="-231"/>
      <point x="-35" y="-217"/>
      <point x="-64" y="-192" type="curve"/>
      <point x="-24" y="-125" type="line"/>
      <point x="-7" y="-144"/>
      <point x="17" y="-154"/>
      <point x="42" y="-154" type="curve" smooth="yes"/>
      <point x="123" y="-154"/>
      <point x="147" y="-68"/>
      <point x="147" y="0" type="curve" smooth="yes"/>
      <point x="147" y="722" type="line"/>
      <point x="234" y="722" type="line"/>
    </contour>
  </outline>
</glyph>
<glyph name="K" format="1">
  <advance width="667"/>
  <unicode hex="004B"/>
  <outline>
    <contour>
      <point x="87" y="0" type="line"/>
      <point x="87" y="722" type="line"/>
      <point x="174" y="722" type="line"/>
      <point x="174" y="440" type="line"/>
      <point x="496" y="722" type="line"/>
      <point x="598" y="722" type="line"/>
      <point x="219" y="381" type="line"/>
      <point x="613" y="0" type="line"/>
      <point x="511" y="0" type="line"/>
      <point x="174" y="321" type="line"/>
      <point x="174" y="0" type="line"/>
    </contour>
  </outline>
</glyph>
<glyph name="L" format="1">
  <advance width="570"/>
  <unicode hex="004C"/>
  <outline>
    <contour>
      <point x="87" y="0" type="line"/>
      <point x="87" y="722" type="line"/>
      <point x="174" y="722" type="line"/>
      <point x="174" y="84" type="line"/>
      <point x="538" y="84" type="line"/>
      <point x="538" y="0" type="line"/>
    </contour>
  </outline>
</glyph>
<glyph name="N" format="1">
  <advance width="769"/>
  <unicode hex="004E"/>
  <outline>
    <contour>
      <point x="87" y="0" type="line"/>
      <point x="87" y="722" type="line"/>
      <point x="174" y="722" type="line"/>
      <point x="610" y="127" type="line"/>
      <point x="610" y="722" type="line"/>
      <point x="697" y="722" type="line"/>
      <point x="697" y="0" type="line"/>
      <point x="610" y="0" type="line"/>
      <point x="174" y="596" type="line"/>
      <point x="174" y="0" type="line"/>
    </contour>
  </outline>
</glyph>
<glyph name="O" format="1">
  <advance width="759"/>
  <unicode hex="004F"/>
  <outline>
    <contour>
      <point x="381" y="647" type="curve" smooth="yes"/>
      <point x="227" y="647"/>
      <point x="146" y="520"/>
      <point x="146" y="357" type="curve" smooth="yes"/>
      <point x="146" y="196"/>
      <point x="236" y="74"/>
      <point x="382" y="74" type="curve" smooth="yes"/>
      <point x="539" y="74"/>
      <point x="618" y="203"/>
      <point x="618" y="363" type="curve" smooth="yes"/>
      <point x="618" y="523"/>
      <point x="530" y="647"/>
    </contour>
    <contour>
      <point x="381" y="728" type="curve" smooth="yes"/>
      <point x="588" y="728"/>
      <point x="707" y="570"/>
      <point x="707" y="362" type="curve" smooth="yes"/>
      <point x="707" y="150"/>
      <point x="583" y="-6"/>
      <point x="381" y="-6" type="curve" smooth="yes"/>
      <point x="379" y="-6" type="line"/>
      <point x="179" y="-4"/>
      <point x="58" y="151"/>
      <point x="58" y="359" type="curve" smooth="yes"/>
      <point x="57" y="571"/>
      <point x="183" y="728"/>
    </contour>
  </outline>
</glyph>
<glyph name="P" format="1">
  <advance width="561"/>
  <unicode hex="0050"/>
  <outline>
    <contour>
      <point x="291" y="251" type="curve" smooth="yes"/>
      <point x="245" y="251"/>
      <point x="210" y="260"/>
      <point x="174" y="275" type="curve"/>
      <point x="174" y="0" type="line"/>
      <point x="87" y="0" type="line"/>
      <point x="87" y="722" type="line"/>
      <point x="256" y="722" type="line" smooth="yes"/>
      <point x="404" y="722"/>
      <point x="529" y="641"/>
      <point x="529" y="474" type="curve" smooth="yes"/>
      <point x="529" y="346"/>
      <point x="429" y="251"/>
    </contour>
    <contour>
      <point x="441" y="480" type="curve" smooth="yes"/>
      <point x="441" y="589"/>
      <point x="355" y="640"/>
      <point x="256" y="640" type="curve" smooth="yes"/>
      <point x="174" y="640" type="line"/>
      <point x="174" y="358" type="line"/>
      <point x="205" y="343"/>
      <point x="238" y="336"/>
      <point x="272" y="336" type="curve" smooth="yes"/>
      <point x="372" y="336"/>
      <point x="441" y="397"/>
    </contour>
  </outline>
</glyph>
<glyph name="Q" format="1">
  <advance width="765"/>
  <unicode hex="0051"/>
  <outline>
    <contour>
      <point x="451" y="0" type="curve"/>
      <point x="522" y="-84"/>
      <point x="637" y="-154"/>
      <point x="774" y="-160" type="curve"/>
      <point x="774" y="-237" type="line"/>
      <point x="595" y="-231"/>
      <point x="442" y="-127"/>
      <point x="362" y="-5" type="curve"/>
      <point x="172" y="6"/>
      <point x="52" y="155"/>
      <point x="52" y="364" type="curve" smooth="yes"/>
      <point x="52" y="573"/>
      <point x="181" y="728"/>
      <point x="385" y="728" type="curve" smooth="yes"/>
      <point x="387" y="728" type="line"/>
      <point x="590" y="726"/>
      <point x="717" y="573"/>
      <point x="717" y="358" type="curve" smooth="yes"/>
      <point x="717" y="173"/>
      <point x="617" y="31"/>
    </contour>
    <contour>
      <point x="384" y="646" type="curve" smooth="yes"/>
      <point x="226" y="646"/>
      <point x="139" y="524"/>
      <point x="139" y="365" type="curve" smooth="yes"/>
      <point x="139" y="200"/>
      <point x="235" y="76"/>
      <point x="385" y="76" type="curve" smooth="yes"/>
      <point x="547" y="76"/>
      <point x="630" y="200"/>
      <point x="630" y="357" type="curve" smooth="yes"/>
      <point x="630" y="521"/>
      <point x="535" y="646"/>
    </contour>
  </outline>
</glyph>
<glyph name="R" format="1">
  <advance width="684"/>
  <unicode hex="0052"/>
  <outline>
    <contour>
      <point x="294" y="722" type="line" smooth="yes"/>
      <point x="439" y="722"/>
      <point x="561" y="661"/>
      <point x="561" y="518" type="curve" smooth="yes"/>
      <point x="561" y="428"/>
      <point x="504" y="367"/>
      <point x="419" y="335" type="curve"/>
      <point x="685" y="0" type="line"/>
      <point x="585" y="0" type="line"/>
      <point x="333" y="314" type="line"/>
      <point x="312" y="311"/>
      <point x="290" y="310"/>
      <point x="268" y="310" type="curve" smooth="yes"/>
      <point x="193" y="310" type="line"/>
      <point x="193" y="0" type="line"/>
      <point x="107" y="0" type="line"/>
      <point x="107" y="722" type="line"/>
    </contour>
    <contour>
      <point x="475" y="516" type="curve" smooth="yes"/>
      <point x="475" y="606"/>
      <point x="390" y="638"/>
      <point x="294" y="638" type="curve" smooth="yes"/>
      <point x="193" y="638" type="line"/>
      <point x="193" y="390" type="line"/>
      <point x="268" y="390" type="line" smooth="yes"/>
      <point x="379" y="390"/>
      <point x="475" y="423"/>
    </contour>
  </outline>
</glyph>
<glyph name="S" format="1">
  <advance width="584"/>
  <unicode hex="0053"/>
  <outline>
    <contour>
      <point x="455" y="605" type="line"/>
      <point x="402" y="632"/>
      <point x="346" y="650"/>
      <point x="281" y="650" type="curve" smooth="yes"/>
      <point x="215" y="650"/>
      <point x="163" y="618"/>
      <point x="163" y="558" type="curve" smooth="yes"/>
      <point x="163" y="486"/>
      <point x="254" y="443"/>
      <point x="330" y="408" type="curve" smooth="yes"/>
      <point x="424" y="364"/>
      <point x="522" y="300"/>
      <point x="522" y="180" type="curve" smooth="yes"/>
      <point x="522" y="66"/>
      <point x="414" y="-6"/>
      <point x="276" y="-6" type="curve" smooth="yes"/>
      <point x="198" y="-6"/>
      <point x="126" y="11"/>
      <point x="57" y="39" type="curve"/>
      <point x="84" y="119" type="line"/>
      <point x="149" y="90"/>
      <point x="217" y="75"/>
      <point x="289" y="75" type="curve" smooth="yes"/>
      <point x="366" y="75"/>
      <point x="430" y="109"/>
      <point x="430" y="182" type="curve" smooth="yes"/>
      <point x="430" y="263"/>
      <point x="344" y="308"/>
      <point x="266" y="344" type="curve" smooth="yes"/>
      <point x="175" y="387"/>
      <point x="73" y="443"/>
      <point x="73" y="562" type="curve" smooth="yes"/>
      <point x="73" y="662"/>
      <point x="165" y="731"/>
      <point x="285" y="731" type="curve" smooth="yes"/>
      <point x="363" y="731"/>
      <point x="425" y="710"/>
      <point x="485" y="679" type="curve"/>
    </contour>
  </outline>
</glyph>
<glyph name="T" format="1">
  <advance width="623"/>
  <unicode hex="0054"/>
  <outline>
    <contour>
      <point x="8" y="644" type="line"/>
      <point x="8" y="728" type="line"/>
      <point x="620" y="728" type="line"/>
      <point x="620" y="644" type="line"/>
      <point x="341" y="644" type="line"/>
      <point x="341" y="0" type="line"/>
      <point x="255" y="0" type="line"/>
      <point x="255" y="644" type="line"/>
    </contour>
  </outline>
</glyph>
<glyph name="U" format="1">
  <advance width="706"/>
  <unicode hex="0055"/>
  <outline>
    <contour>
      <point x="78" y="722" type="line"/>
      <point x="164" y="722" type="line"/>
      <point x="164" y="323" type="line" smooth="yes"/>
      <point x="164" y="177"/>
      <point x="237" y="78"/>
      <point x="375" y="78" type="curve" smooth="yes"/>
      <point x="495" y="78"/>
      <point x="562" y="167"/>
      <point x="562" y="293" type="curve" smooth="yes"/>
      <point x="562" y="722" type="line"/>
      <point x="649" y="722" type="line"/>
      <point x="648" y="585"/>
      <point x="648" y="448"/>
      <point x="648" y="311" type="curve" smooth="yes"/>
      <point x="648" y="123"/>
      <point x="541" y="-6"/>
      <point x="359" y="-6" type="curve" smooth="yes"/>
      <point x="178" y="-6"/>
      <point x="78" y="118"/>
      <point x="78" y="306" type="curve" smooth="yes"/>
    </contour>
  </outline>
</glyph>
<glyph name="V" format="1">
  <advance width="751"/>
  <unicode hex="0056"/>
  <outline>
    <contour>
      <point x="723" y="722" type="line"/>
      <point x="440" y="0" type="line"/>
      <point x="350" y="0" type="line"/>
      <point x="65" y="722" type="line"/>
      <point x="155" y="722" type="line"/>
      <point x="397" y="119" type="line"/>
      <point x="634" y="722" type="line"/>
    </contour>
  </outline>
</glyph>
<glyph name="W" format="1">
  <advance width="966"/>
  <unicode hex="0057"/>
  <outline>
    <contour>
      <point x="919" y="722" type="line"/>
      <point x="718" y="0" type="line"/>
      <point x="641" y="0" type="line"/>
      <point x="503" y="581" type="line"/>
      <point x="366" y="0" type="line"/>
      <point x="288" y="0" type="line"/>
      <point x="54" y="722" type="line"/>
      <point x="140" y="722" type="line"/>
      <point x="320" y="132" type="line"/>
      <point x="464" y="722" type="line"/>
      <point x="537" y="722" type="line"/>
      <point x="678" y="135" type="line"/>
      <point x="837" y="722" type="line"/>
    </contour>
  </outline>
</glyph>
<glyph name="X" format="1">
  <advance width="693"/>
  <unicode hex="0058"/>
  <outline>
    <contour>
      <point x="77" y="722" type="line"/>
      <point x="168" y="722" type="line"/>
      <point x="352" y="438" type="line"/>
      <point x="565" y="722" type="line"/>
      <point x="658" y="722" type="line"/>
      <point x="398" y="368" type="line"/>
      <point x="637" y="0" type="line"/>
      <point x="546" y="0" type="line"/>
      <point x="350" y="302" type="line"/>
      <point x="128" y="0" type="line"/>
      <point x="35" y="0" type="line"/>
      <point x="307" y="368" type="line"/>
    </contour>
  </outline>
</glyph>
<glyph name="Y" format="1">
  <advance width="626"/>
  <unicode hex="0059"/>
  <outline>
    <contour>
      <point x="522" y="722" type="line"/>
      <point x="613" y="722" type="line"/>
      <point x="366" y="335" type="line"/>
      <point x="366" y="0" type="line"/>
      <point x="280" y="0" type="line"/>
      <point x="280" y="316" type="line"/>
      <point x="45" y="722" type="line"/>
      <point x="133" y="722" type="line"/>
      <point x="319" y="409" type="line"/>
    </contour>
  </outline>
</glyph>
<glyph name="Z" format="1">
  <advance width="671"/>
  <unicode hex="005A"/>
  <outline>
    <contour>
      <point x="109" y="629" type="line"/>
      <point x="109" y="711" type="line"/>
      <point x="606" y="711" type="line"/>
      <point x="606" y="629" type="line"/>
      <point x="140" y="86" type="line"/>
      <point x="631" y="86" type="line"/>
      <point x="631" y="4" type="line"/>
      <point x="44" y="4" type="line"/>
      <point x="44" y="86" type="line"/>
      <point x="510" y="629" type="line"/>
    </contour>
  </outline>
</glyph>
<glyph name="underscore" format="1">
  <advance width="717"/>
  <unicode hex="005F"/>
  <outline>
    <contour>
      <point x="31" y="-164" type="line"/>
      <point x="692" y="-164" type="line"/>
      <point x="692" y="-250" type="line"/>
      <point x="31" y="-250" type="line"/>
    </contour>
  </outline>
</glyph>
<glyph name="grave" format="1">
  <advance width="346"/>
  <unicode hex="0060"/>
  <outline>
    <contour>
      <point x="218" y="656" type="line"/>
      <point x="69" y="846" type="line"/>
      <point x="160" y="846" type="line"/>
      <point x="304" y="656" type="line"/>
    </contour>
  </outline>
</glyph>
<glyph name="a" format="1">
  <advance width="621"/>
  <unicode hex="0061"/>
  <outline>
    <contour>
      <point x="418" y="334" type="line" smooth="yes"/>
      <point x="418" y="420"/>
      <point x="353" y="471"/>
      <point x="256" y="471" type="curve" smooth="yes"/>
      <point x="211" y="471"/>
      <point x="166" y="458"/>
      <point x="128" y="431" type="curve"/>
      <point x="86" y="492" type="line"/>
      <point x="138" y="529"/>
      <point x="199" y="546"/>
      <point x="262" y="546" type="curve" smooth="yes"/>
      <point x="404" y="546"/>
      <point x="504" y="473"/>
      <point x="504" y="348" type="curve" smooth="yes"/>
      <point x="504" y="121" type="line" smooth="yes"/>
      <point x="504" y="80"/>
      <point x="504" y="40"/>
      <point x="505" y="0" type="curve"/>
      <point x="418" y="0" type="line"/>
      <point x="418" y="80" type="line"/>
      <point x="369" y="25"/>
      <point x="309" y="-10"/>
      <point x="238" y="-10" type="curve" smooth="yes"/>
      <point x="133" y="-10"/>
      <point x="63" y="52"/>
      <point x="63" y="145" type="curve" smooth="yes"/>
      <point x="63" y="281"/>
      <point x="196" y="332"/>
      <point x="355" y="332" type="curve" smooth="yes"/>
      <point x="376" y="332"/>
      <point x="397" y="332"/>
      <point x="418" y="330" type="curve"/>
    </contour>
    <contour>
      <point x="149" y="151" type="curve" smooth="yes"/>
      <point x="149" y="98"/>
      <point x="193" y="70"/>
      <point x="250" y="70" type="curve" smooth="yes"/>
      <point x="323" y="70"/>
      <point x="377" y="110"/>
      <point x="418" y="170" type="curve"/>
      <point x="418" y="266" type="line"/>
      <point x="390" y="269"/>
      <point x="363" y="270"/>
      <point x="337" y="270" type="curve" smooth="yes"/>
      <point x="232" y="270"/>
      <point x="149" y="243"/>
    </contour>
  </outline>
</glyph>
<glyph name="b" format="1">
  <advance width="601"/>
  <unicode hex="0062"/>
  <outline>
    <contour>
      <point x="313" y="-4" type="curve" smooth="yes"/>
      <point x="247" y="-4"/>
      <point x="198" y="16"/>
      <point x="159" y="50" type="curve"/>
      <point x="159" y="0" type="line"/>
      <point x="72" y="0" type="line"/>
      <point x="72" y="783" type="line"/>
      <point x="159" y="783" type="line"/>
      <point x="159" y="477" type="line"/>
      <point x="205" y="516"/>
      <point x="264" y="540"/>
      <point x="325" y="540" type="curve" smooth="yes"/>
      <point x="471" y="540"/>
      <point x="555" y="417"/>
      <point x="555" y="265" type="curve" smooth="yes"/>
      <point x="555" y="112"/>
      <point x="457" y="-4"/>
    </contour>
    <contour>
      <point x="297" y="476" type="curve" smooth="yes"/>
      <point x="242" y="476"/>
      <point x="191" y="448"/>
      <point x="159" y="406" type="curve"/>
      <point x="159" y="135" type="line"/>
      <point x="188" y="90"/>
      <point x="235" y="63"/>
      <point x="289" y="63" type="curve" smooth="yes"/>
      <point x="408" y="63"/>
      <point x="467" y="154"/>
      <point x="467" y="259" type="curve" smooth="yes"/>
      <point x="467" y="378"/>
      <point x="402" y="476"/>
    </contour>
  </outline>
</glyph>
<glyph name="c" format="1">
  <advance width="480"/>
  <unicode hex="0063"/>
  <outline>
    <contour>
      <point x="141" y="266" type="curve" smooth="yes"/>
      <point x="141" y="159"/>
      <point x="203" y="72"/>
      <point x="318" y="72" type="curve" smooth="yes"/>
      <point x="363" y="72"/>
      <point x="402" y="89"/>
      <point x="433" y="122" type="curve"/>
      <point x="480" y="64" type="line"/>
      <point x="431" y="15"/>
      <point x="372" y="-9"/>
      <point x="307" y="-9" type="curve" smooth="yes"/>
      <point x="145" y="-9"/>
      <point x="53" y="110"/>
      <point x="53" y="268" type="curve" smooth="yes"/>
      <point x="53" y="423"/>
      <point x="153" y="537"/>
      <point x="309" y="539" type="curve" smooth="yes"/>
      <point x="368" y="539"/>
      <point x="418" y="522"/>
      <point x="464" y="485" type="curve"/>
      <point x="425" y="422" type="line"/>
      <point x="393" y="449"/>
      <point x="357" y="463"/>
      <point x="318" y="463" type="curve" smooth="yes"/>
      <point x="200" y="463"/>
      <point x="141" y="373"/>
    </contour>
  </outline>
</glyph>
<glyph name="d" format="1">
  <advance width="634"/>
  <unicode hex="0064"/>
  <outline>
    <contour>
      <point x="325" y="465" type="curve" smooth="yes"/>
      <point x="208" y="465"/>
      <point x="148" y="378"/>
      <point x="148" y="267" type="curve" smooth="yes"/>
      <point x="148" y="150"/>
      <point x="217" y="62"/>
      <point x="322" y="62" type="curve" smooth="yes"/>
      <point x="393" y="62"/>
      <point x="444" y="98"/>
      <point x="470" y="147" type="curve"/>
      <point x="470" y="290" type="line"/>
      <point x="470" y="411" type="line"/>
      <point x="430" y="445"/>
      <point x="377" y="465"/>
    </contour>
    <contour>
      <point x="297" y="541" type="curve" smooth="yes"/>
      <point x="371" y="541"/>
      <point x="425" y="513"/>
      <point x="470" y="475" type="curve"/>
      <point x="470" y="578"/>
      <point x="469" y="681"/>
      <point x="468" y="783" type="curve"/>
      <point x="555" y="783" type="line"/>
      <point x="556" y="652"/>
      <point x="557" y="521"/>
      <point x="557" y="389" type="curve" smooth="yes"/>
      <point x="557" y="296"/>
      <point x="556" y="202"/>
      <point x="556" y="109" type="curve" smooth="yes"/>
      <point x="556" y="73"/>
      <point x="556" y="36"/>
      <point x="555" y="0" type="curve"/>
      <point x="469" y="0" type="line"/>
      <point x="469" y="62" type="line"/>
      <point x="427" y="19"/>
      <point x="367" y="-6"/>
      <point x="300" y="-6" type="curve" smooth="yes"/>
      <point x="152" y="-6"/>
      <point x="61" y="110"/>
      <point x="61" y="266" type="curve" smooth="yes"/>
      <point x="61" y="425"/>
      <point x="162" y="541"/>
    </contour>
  </outline>
</glyph>
<glyph name="e" format="1">
  <advance width="572"/>
  <unicode hex="0065"/>
  <outline>
    <contour>
      <point x="291" y="542" type="curve" smooth="yes"/>
      <point x="435" y="542"/>
      <point x="515" y="443"/>
      <point x="515" y="297" type="curve" smooth="yes"/>
      <point x="515" y="280"/>
      <point x="513" y="263"/>
      <point x="511" y="245" type="curve"/>
      <point x="144" y="245" type="line"/>
      <point x="158" y="141"/>
      <point x="224" y="70"/>
      <point x="328" y="70" type="curve" smooth="yes"/>
      <point x="330" y="70" type="line" smooth="yes"/>
      <point x="377" y="70"/>
      <point x="423" y="86"/>
      <point x="460" y="115" type="curve"/>
      <point x="506" y="56" type="line"/>
      <point x="451" y="14"/>
      <point x="384" y="-8"/>
      <point x="315" y="-8" type="curve" smooth="yes"/>
      <point x="146" y="-8"/>
      <point x="55" y="108"/>
      <point x="55" y="273" type="curve" smooth="yes"/>
      <point x="55" y="428"/>
      <point x="152" y="542"/>
    </contour>
    <contour>
      <point x="429" y="314" type="line"/>
      <point x="422" y="402"/>
      <point x="372" y="464"/>
      <point x="290" y="464" type="curve" smooth="yes"/>
      <point x="204" y="463"/>
      <point x="152" y="399"/>
      <point x="143" y="314" type="curve"/>
    </contour>
  </outline>
</glyph>
<glyph name="f" format="1">
  <advance width="475"/>
  <unicode hex="0066"/>
  <outline>
    <contour>
      <point x="264" y="525" type="line"/>
      <point x="459" y="525" type="line"/>
      <point x="459" y="444" type="line"/>
      <point x="264" y="444" type="line"/>
      <point x="264" y="0" type="line"/>
      <point x="178" y="0" type="line"/>
      <point x="178" y="444" type="line"/>
      <point x="29" y="444" type="line"/>
      <point x="29" y="525" type="line"/>
      <point x="178" y="525" type="line"/>
      <point x="178" y="593" type="line" smooth="yes"/>
      <point x="178" y="724"/>
      <point x="263" y="808"/>
      <point x="371" y="808" type="curve" smooth="yes"/>
      <point x="404" y="808"/>
      <point x="440" y="800"/>
      <point x="476" y="783" type="curve"/>
      <point x="449" y="713" type="line"/>
      <point x="427" y="723"/>
      <point x="405" y="727"/>
      <point x="385" y="727" type="curve" smooth="yes"/>
      <point x="316" y="727"/>
      <point x="264" y="675"/>
      <point x="264" y="593" type="curve" smooth="yes"/>
    </contour>
  </outline>
</glyph>
<glyph name="g" format="1">
  <advance width="591"/>
  <unicode hex="0067"/>
  <outline>
    <contour>
      <point x="468" y="-110" type="curve" smooth="yes"/>
      <point x="468" y="-36"/>
      <point x="393" y="-13"/>
      <point x="326" y="-13" type="curve" smooth="yes"/>
      <point x="313" y="-13" type="line" smooth="yes"/>
      <point x="250" y="-13"/>
      <point x="193" y="-12"/>
      <point x="151" y="1" type="curve"/>
      <point x="125" y="-24"/>
      <point x="109" y="-59"/>
      <point x="109" y="-98" type="curve" smooth="yes"/>
      <point x="109" y="-188"/>
      <point x="182" y="-227"/>
      <point x="279" y="-227" type="curve" smooth="yes"/>
      <point x="376" y="-227"/>
      <point x="468" y="-183"/>
    </contour>
    <contour>
      <point x="256" y="-307" type="curve" smooth="yes"/>
      <point x="133" y="-307"/>
      <point x="40" y="-251"/>
      <point x="40" y="-128" type="curve" smooth="yes"/>
      <point x="40" y="-70"/>
      <point x="65" y="-14"/>
      <point x="107" y="24" type="curve"/>
      <point x="84" y="43"/>
      <point x="69" y="74"/>
      <point x="69" y="119" type="curve" smooth="yes"/>
      <point x="69" y="163"/>
      <point x="90" y="202"/>
      <point x="124" y="225" type="curve"/>
      <point x="90" y="257"/>
      <point x="68" y="297"/>
      <point x="68" y="351" type="curve" smooth="yes"/>
      <point x="68" y="459"/>
      <point x="168" y="539"/>
      <point x="283" y="539" type="curve" smooth="yes"/>
      <point x="328" y="539"/>
      <point x="365" y="529"/>
      <point x="398" y="509" type="curve"/>
      <point x="575" y="509" type="line"/>
      <point x="575" y="440" type="line"/>
      <point x="467" y="440" type="line"/>
      <point x="480" y="417"/>
      <point x="488" y="391"/>
      <point x="488" y="358" type="curve" smooth="yes"/>
      <point x="488" y="252"/>
      <point x="390" y="168"/>
      <point x="274" y="168" type="curve" smooth="yes"/>
      <point x="272" y="168" type="line" smooth="yes"/>
      <point x="232" y="168"/>
      <point x="194" y="179"/>
      <point x="162" y="197" type="curve"/>
      <point x="149" y="182"/>
      <point x="141" y="162"/>
      <point x="141" y="140" type="curve" smooth="yes"/>
      <point x="141" y="70"/>
      <point x="188" y="59"/>
      <point x="253" y="59" type="curve" smooth="yes"/>
      <point x="284" y="59"/>
      <point x="319" y="61"/>
      <point x="356" y="61" type="curve" smooth="yes"/>
      <point x="450" y="61"/>
      <point x="548" y="11"/>
      <point x="548" y="-98" type="curve" smooth="yes"/>
      <point x="548" y="-213"/>
      <point x="413" y="-307"/>
    </contour>
    <contour>
      <point x="154" y="355" type="curve" smooth="yes"/>
      <point x="154" y="287"/>
      <point x="215" y="240"/>
      <point x="283" y="240" type="curve" smooth="yes"/>
      <point x="285" y="240" type="line"/>
      <point x="351" y="241"/>
      <point x="408" y="286"/>
      <point x="408" y="354" type="curve" smooth="yes"/>
      <point x="408" y="419"/>
      <point x="351" y="469"/>
      <point x="282" y="469" type="curve" smooth="yes"/>
      <point x="211" y="469"/>
      <point x="154" y="418"/>
    </contour>
  </outline>
</glyph>
<glyph name="h" format="1">
  <advance width="588"/>
  <unicode hex="0068"/>
  <outline>
    <contour>
      <point x="428" y="325" type="line" smooth="yes"/>
      <point x="428" y="400"/>
      <point x="379" y="464"/>
      <point x="301" y="464" type="curve" smooth="yes"/>
      <point x="251" y="464"/>
      <point x="197" y="439"/>
      <point x="165" y="399" type="curve"/>
      <point x="165" y="266"/>
      <point x="165" y="133"/>
      <point x="166" y="0" type="curve"/>
      <point x="79" y="0" type="line"/>
      <point x="79" y="783" type="line"/>
      <point x="165" y="783" type="line"/>
      <point x="165" y="727" type="line"/>
      <point x="165" y="483" type="line"/>
      <point x="210" y="522"/>
      <point x="269" y="546"/>
      <point x="327" y="546" type="curve" smooth="yes"/>
      <point x="454" y="546"/>
      <point x="514" y="444"/>
      <point x="514" y="333" type="curve" smooth="yes"/>
      <point x="514" y="222"/>
      <point x="514" y="111"/>
      <point x="515" y="0" type="curve"/>
      <point x="428" y="0" type="line"/>
    </contour>
  </outline>
</glyph>
<glyph name="i" format="1">
  <advance width="265"/>
  <unicode hex="0069"/>
  <outline>
    <contour>
      <point x="89" y="690" type="line"/>
      <point x="89" y="818" type="line"/>
      <point x="179" y="818" type="line"/>
      <point x="179" y="690" type="line"/>
    </contour>
    <contour>
      <point x="92" y="0" type="line"/>
      <point x="91" y="533" type="line"/>
      <point x="177" y="533" type="line"/>
      <point x="178" y="0" type="line"/>
    </contour>
  </outline>
</glyph>
<glyph name="j" format="1">
  <advance width="366"/>
  <unicode hex="006A"/>
  <outline>
    <contour>
      <point x="161" y="683" type="line"/>
      <point x="161" y="816" type="line"/>
      <point x="252" y="816" type="line"/>
      <point x="252" y="683" type="line"/>
    </contour>
    <contour>
      <point x="39" y="-223" type="line"/>
      <point x="46" y="-224"/>
      <point x="52" y="-225"/>
      <point x="58" y="-225" type="curve" smooth="yes"/>
      <point x="114" y="-225"/>
      <point x="163" y="-179"/>
      <point x="163" y="-120" type="curve" smooth="yes"/>
      <point x="163" y="535" type="line"/>
      <point x="249" y="535" type="line"/>
      <point x="249" y="-120" type="line" smooth="yes"/>
      <point x="249" y="-224"/>
      <point x="165" y="-307"/>
      <point x="64" y="-307" type="curve" smooth="yes"/>
      <point x="56" y="-307"/>
      <point x="47" y="-306"/>
      <point x="39" y="-305" type="curve"/>
    </contour>
  </outline>
</glyph>
<glyph name="k" format="1">
  <advance width="615"/>
  <unicode hex="006B"/>
  <outline>
    <contour>
      <point x="110" y="0" type="line"/>
      <point x="110" y="783" type="line"/>
      <point x="197" y="783" type="line"/>
      <point x="197" y="327" type="line"/>
      <point x="449" y="533" type="line"/>
      <point x="559" y="533" type="line"/>
      <point x="268" y="290" type="line"/>
      <point x="583" y="0" type="line"/>
      <point x="475" y="0" type="line"/>
      <point x="197" y="251" type="line"/>
      <point x="197" y="0" type="line"/>
    </contour>
  </outline>
</glyph>
<glyph name="l" format="1">
  <advance width="284"/>
  <unicode hex="006C"/>
  <outline>
    <contour>
      <point x="101" y="1" type="line"/>
      <point x="100" y="783" type="line"/>
      <point x="187" y="783" type="line"/>
      <point x="187" y="1" type="line"/>
    </contour>
  </outline>
</glyph>
<glyph name="m" format="1">
  <advance width="939"/>
  <unicode hex="006D"/>
  <outline>
    <contour>
      <point x="431" y="356" type="curve" smooth="yes"/>
      <point x="431" y="421"/>
      <point x="385" y="466"/>
      <point x="316" y="466" type="curve" smooth="yes"/>
      <point x="263" y="466"/>
      <point x="209" y="440"/>
      <point x="175" y="399" type="curve"/>
      <point x="175" y="256"/>
      <point x="175" y="148"/>
      <point x="174" y="0" type="curve"/>
      <point x="87" y="0" type="line"/>
      <point x="88" y="159"/>
      <point x="88" y="271"/>
      <point x="89" y="431" type="curve"/>
      <point x="89" y="533" type="line"/>
      <point x="175" y="533" type="line"/>
      <point x="175" y="479" type="line"/>
      <point x="218" y="521"/>
      <point x="278" y="546"/>
      <point x="338" y="546" type="curve" smooth="yes"/>
      <point x="418" y="546"/>
      <point x="470" y="507"/>
      <point x="496" y="454" type="curve"/>
      <point x="539" y="509"/>
      <point x="608" y="544"/>
      <point x="678" y="544" type="curve" smooth="yes"/>
      <point x="801" y="544"/>
      <point x="858" y="456"/>
      <point x="858" y="348" type="curve" smooth="yes"/>
      <point x="858" y="1" type="line"/>
      <point x="772" y="1" type="line"/>
      <point x="771" y="116"/>
      <point x="771" y="230"/>
      <point x="771" y="344" type="curve" smooth="yes"/>
      <point x="771" y="414"/>
      <point x="724" y="462"/>
      <point x="652" y="462" type="curve" smooth="yes"/>
      <point x="599" y="462"/>
      <point x="547" y="435"/>
      <point x="514" y="393" type="curve"/>
      <point x="516" y="380"/>
      <point x="517" y="367"/>
      <point x="517" y="353" type="curve" smooth="yes"/>
      <point x="517" y="236"/>
      <point x="517" y="119"/>
      <point x="516" y="1" type="curve"/>
      <point x="430" y="1" type="line"/>
      <point x="430" y="119"/>
      <point x="431" y="237"/>
    </contour>
  </outline>
</glyph>
<glyph name="n" format="1">
  <advance width="599"/>
  <unicode hex="006E"/>
  <outline>
    <contour>
      <point x="343" y="544" type="curve" smooth="yes"/>
      <point x="463" y="544"/>
      <point x="526" y="460"/>
      <point x="526" y="351" type="curve" smooth="yes"/>
      <point x="526" y="0" type="line"/>
      <point x="440" y="0" type="line"/>
      <point x="440" y="345" type="line" smooth="yes"/>
      <point x="440" y="415"/>
      <point x="390" y="462"/>
      <point x="319" y="462" type="curve" smooth="yes"/>
      <point x="317" y="462" type="line"/>
      <point x="261" y="461"/>
      <point x="204" y="433"/>
      <point x="168" y="390" type="curve"/>
      <point x="168" y="260"/>
      <point x="167" y="130"/>
      <point x="166" y="0" type="curve"/>
      <point x="79" y="0" type="line"/>
      <point x="81" y="144"/>
      <point x="81" y="287"/>
      <point x="81" y="431" type="curve" smooth="yes"/>
      <point x="81" y="533" type="line"/>
      <point x="168" y="533" type="line"/>
      <point x="168" y="470" type="line"/>
      <point x="214" y="516"/>
      <point x="278" y="544"/>
    </contour>
  </outline>
</glyph>
<glyph name="o" format="1">
  <advance width="613"/>
  <unicode hex="006F"/>
  <outline>
    <contour>
      <point x="146" y="278" type="curve" smooth="yes"/>
      <point x="146" y="161"/>
      <point x="204" y="75"/>
      <point x="305" y="75" type="curve" smooth="yes"/>
      <point x="415" y="75"/>
      <point x="464" y="159"/>
      <point x="464" y="267" type="curve" smooth="yes"/>
      <point x="464" y="378"/>
      <point x="404" y="461"/>
      <point x="306" y="461" type="curve" smooth="yes"/>
      <point x="197" y="461"/>
      <point x="146" y="380"/>
    </contour>
    <contour>
      <point x="306" y="-8" type="curve" smooth="yes"/>
      <point x="142" y="-8"/>
      <point x="58" y="108"/>
      <point x="58" y="267" type="curve" smooth="yes"/>
      <point x="58" y="426"/>
      <point x="153" y="540"/>
      <point x="304" y="540" type="curve" smooth="yes"/>
      <point x="464" y="540"/>
      <point x="551" y="427"/>
      <point x="551" y="269" type="curve" smooth="yes"/>
      <point x="551" y="107"/>
      <point x="454" y="-8"/>
    </contour>
  </outline>
</glyph>
<glyph name="p" format="1">
  <advance width="630"/>
  <unicode hex="0070"/>
  <outline>
    <contour>
      <point x="314" y="-7" type="curve" smooth="yes"/>
      <point x="254" y="-7"/>
      <point x="209" y="8"/>
      <point x="168" y="36" type="curve"/>
      <point x="168" y="-76"/>
      <point x="167" y="-188"/>
      <point x="166" y="-300" type="curve"/>
      <point x="79" y="-300" type="line"/>
      <point x="81" y="-154"/>
      <point x="82" y="-9"/>
      <point x="82" y="137" type="curve" smooth="yes"/>
      <point x="82" y="269"/>
      <point x="82" y="403"/>
      <point x="79" y="533" type="curve"/>
      <point x="166" y="533" type="line"/>
      <point x="166" y="463" type="line"/>
      <point x="216" y="510"/>
      <point x="284" y="540"/>
      <point x="351" y="540" type="curve" smooth="yes"/>
      <point x="494" y="540"/>
      <point x="573" y="415"/>
      <point x="573" y="273" type="curve" smooth="yes"/>
      <point x="573" y="111"/>
      <point x="468" y="-7"/>
    </contour>
    <contour>
      <point x="324" y="476" type="curve" smooth="yes"/>
      <point x="257" y="476"/>
      <point x="198" y="434"/>
      <point x="167" y="380" type="curve"/>
      <point x="168" y="295"/>
      <point x="168" y="211"/>
      <point x="168" y="126" type="curve" smooth="yes"/>
      <point x="168" y="109" type="line"/>
      <point x="203" y="80"/>
      <point x="245" y="65"/>
      <point x="291" y="65" type="curve" smooth="yes"/>
      <point x="417" y="65"/>
      <point x="488" y="155"/>
      <point x="488" y="277" type="curve" smooth="yes"/>
      <point x="488" y="385"/>
      <point x="421" y="476"/>
    </contour>
  </outline>
</glyph>
<glyph name="q" format="1">
  <advance width="638"/>
  <unicode hex="0071"/>
  <outline>
    <contour>
      <point x="316" y="538" type="curve" smooth="yes"/>
      <point x="383" y="538"/>
      <point x="432" y="518"/>
      <point x="473" y="485" type="curve"/>
      <point x="473" y="533" type="line"/>
      <point x="559" y="533" type="line"/>
      <point x="559" y="-300" type="line"/>
      <point x="473" y="-300" type="line"/>
      <point x="473" y="29" type="line"/>
      <point x="431" y="4"/>
      <point x="384" y="-8"/>
      <point x="333" y="-8" type="curve" smooth="yes"/>
      <point x="172" y="-8"/>
      <point x="55" y="101"/>
      <point x="55" y="268" type="curve" smooth="yes"/>
      <point x="55" y="419"/>
      <point x="169" y="538"/>
    </contour>
    <contour>
      <point x="145" y="272" type="curve" smooth="yes"/>
      <point x="145" y="140"/>
      <point x="236" y="56"/>
      <point x="358" y="56" type="curve" smooth="yes"/>
      <point x="401" y="56"/>
      <point x="439" y="68"/>
      <point x="473" y="91" type="curve"/>
      <point x="473" y="413" type="line"/>
      <point x="438" y="451"/>
      <point x="390" y="472"/>
      <point x="338" y="472" type="curve" smooth="yes"/>
      <point x="220" y="472"/>
      <point x="145" y="379"/>
    </contour>
  </outline>
</glyph>
<glyph name="r" format="1">
  <advance width="415"/>
  <unicode hex="0072"/>
  <outline>
    <contour>
      <point x="362" y="461" type="curve" smooth="yes"/>
      <point x="276" y="461"/>
      <point x="212" y="421"/>
      <point x="167" y="370" type="curve"/>
      <point x="167" y="0" type="line"/>
      <point x="81" y="0" type="line"/>
      <point x="81" y="533" type="line"/>
      <point x="167" y="533" type="line"/>
      <point x="167" y="462" type="line"/>
      <point x="215" y="505"/>
      <point x="278" y="541"/>
      <point x="362" y="541" type="curve" smooth="yes"/>
      <point x="374" y="541"/>
      <point x="386" y="540"/>
      <point x="398" y="539" type="curve"/>
      <point x="389" y="460" type="line"/>
      <point x="380" y="461"/>
      <point x="371" y="461"/>
    </contour>
  </outline>
</glyph>
<glyph name="s" format="1">
  <advance width="495"/>
  <unicode hex="0073"/>
  <outline>
    <contour>
      <point x="263" y="468" type="curve" smooth="yes"/>
      <point x="204" y="468"/>
      <point x="155" y="445"/>
      <point x="155" y="396" type="curve" smooth="yes"/>
      <point x="155" y="329"/>
      <point x="227" y="316"/>
      <point x="287" y="299" type="curve"/>
      <point x="371" y="277"/>
      <point x="449" y="238"/>
      <point x="449" y="147" type="curve" smooth="yes"/>
      <point x="449" y="48"/>
      <point x="340" y="-6"/>
      <point x="219" y="-6" type="curve" smooth="yes"/>
      <point x="146" y="-6"/>
      <point x="82" y="13"/>
      <point x="20" y="53" type="curve"/>
      <point x="59" y="120" type="line"/>
      <point x="113" y="87"/>
      <point x="169" y="71"/>
      <point x="233" y="71" type="curve" smooth="yes"/>
      <point x="296" y="71"/>
      <point x="358" y="85"/>
      <point x="358" y="145" type="curve" smooth="yes"/>
      <point x="358" y="199"/>
      <point x="294" y="217"/>
      <point x="233" y="233" type="curve" smooth="yes"/>
      <point x="149" y="255"/>
      <point x="68" y="298"/>
      <point x="68" y="398" type="curve" smooth="yes"/>
      <point x="68" y="483"/>
      <point x="147" y="540"/>
      <point x="250" y="540" type="curve" smooth="yes"/>
      <point x="319" y="540"/>
      <point x="371" y="522"/>
      <point x="425" y="491" type="curve"/>
      <point x="392" y="424" type="line"/>
      <point x="353" y="453"/>
      <point x="310" y="468"/>
    </contour>
  </outline>
</glyph>
<glyph name="t" format="1">
  <advance width="445"/>
  <unicode hex="0074"/>
  <outline>
    <contour>
      <point x="27" y="440" type="line"/>
      <point x="26" y="520" type="line"/>
      <point x="152" y="520" type="line"/>
      <point x="152" y="625" type="line"/>
      <point x="238" y="677" type="line"/>
      <point x="238" y="520" type="line"/>
      <point x="425" y="520" type="line"/>
      <point x="425" y="441" type="line"/>
      <point x="238" y="441" type="line"/>
      <point x="238" y="198" type="line" smooth="yes"/>
      <point x="238" y="130"/>
      <point x="254" y="68"/>
      <point x="314" y="68" type="curve" smooth="yes"/>
      <point x="341" y="68"/>
      <point x="368" y="75"/>
      <point x="391" y="89" type="curve"/>
      <point x="417" y="23" type="line"/>
      <point x="375" y="4"/>
      <point x="329" y="-6"/>
      <point x="282" y="-6" type="curve" smooth="yes"/>
      <point x="200" y="-6"/>
      <point x="152" y="61"/>
      <point x="152" y="147" type="curve" smooth="yes"/>
      <point x="152" y="440" type="line"/>
    </contour>
  </outline>
</glyph>
<glyph name="u" format="1">
  <advance width="599"/>
  <unicode hex="0075"/>
  <outline>
    <contour>
      <point x="171" y="197" type="line" smooth="yes"/>
      <point x="171" y="117"/>
      <point x="217" y="56"/>
      <point x="304" y="56" type="curve" smooth="yes"/>
      <point x="362" y="56"/>
      <point x="412" y="89"/>
      <point x="437" y="137" type="curve"/>
      <point x="437" y="533" type="line"/>
      <point x="524" y="533" type="line"/>
      <point x="524" y="0" type="line"/>
      <point x="437" y="0" type="line"/>
      <point x="437" y="55" type="line"/>
      <point x="394" y="13"/>
      <point x="336" y="-11"/>
      <point x="273" y="-11" type="curve" smooth="yes"/>
      <point x="155" y="-11"/>
      <point x="84" y="64"/>
      <point x="84" y="168" type="curve" smooth="yes"/>
      <point x="84" y="533" type="line"/>
      <point x="171" y="533" type="line"/>
    </contour>
  </outline>
</glyph>
<glyph name="v" format="1">
  <advance width="572"/>
  <unicode hex="0076"/>
  <outline>
    <contour>
      <point x="34" y="533" type="line"/>
      <point x="125" y="533" type="line"/>
      <point x="279" y="97" type="line"/>
      <point x="447" y="533" type="line"/>
      <point x="538" y="533" type="line"/>
      <point x="324" y="0" type="line"/>
      <point x="242" y="0" type="line"/>
    </contour>
  </outline>
</glyph>
<glyph name="w" format="1">
  <advance width="933"/>
  <unicode hex="0077"/>
  <outline>
    <contour>
      <point x="54" y="533" type="line"/>
      <point x="140" y="533" type="line"/>
      <point x="284" y="101" type="line"/>
      <point x="425" y="533" type="line"/>
      <point x="507" y="533" type="line"/>
      <point x="630" y="99" type="line"/>
      <point x="808" y="533" type="line"/>
      <point x="900" y="533" type="line"/>
      <point x="672" y="0" type="line"/>
      <point x="590" y="0" type="line"/>
      <point x="465" y="404" type="line"/>
      <point x="333" y="0" type="line"/>
      <point x="251" y="0" type="line"/>
    </contour>
  </outline>
</glyph>
<glyph name="x" format="1">
  <advance width="578"/>
  <unicode hex="0078"/>
  <outline>
    <contour>
      <point x="80" y="533" type="line"/>
      <point x="181" y="533" type="line"/>
      <point x="297" y="355" type="line"/>
      <point x="434" y="533" type="line"/>
      <point x="529" y="533" type="line"/>
      <point x="346" y="279" type="line"/>
      <point x="528" y="0" type="line"/>
      <point x="427" y="0" type="line"/>
      <point x="296" y="202" type="line"/>
      <point x="138" y="0" type="line"/>
      <point x="44" y="0" type="line"/>
      <point x="247" y="276" type="line"/>
    </contour>
  </outline>
</glyph>
<glyph name="y" format="1">
  <advance width="582"/>
  <unicode hex="0079"/>
  <outline>
    <contour>
      <point x="41" y="533" type="line"/>
      <point x="134" y="533" type="line"/>
      <point x="286" y="172" type="line"/>
      <point x="458" y="533" type="line"/>
      <point x="544" y="533" type="line"/>
      <point x="153" y="-300" type="line"/>
      <point x="60" y="-300" type="line"/>
      <point x="242" y="81" type="line"/>
    </contour>
  </outline>
</glyph>
<glyph name="z" format="1">
  <advance width="499"/>
  <unicode hex="007A"/>
  <outline>
    <contour>
      <point x="71" y="443" type="line"/>
      <point x="71" y="523" type="line"/>
      <point x="468" y="523" type="line"/>
      <point x="468" y="443" type="line"/>
      <point x="126" y="80" type="line"/>
      <point x="478" y="80" type="line"/>
      <point x="478" y="0" type="line"/>
      <point x="26" y="0" type="line"/>
      <point x="26" y="80" type="line"/>
      <point x="369" y="443" type="line"/>
    </contour>
  </outline>
</glyph>
<glyph name="bar" format="1">
  <advance width="88"/>
  <unicode hex="007C"/>
  <outline>
    <contour>
      <point x="3" y="847" type="line"/>
      <point x="90" y="847" type="line"/>
      <point x="90" y="535" type="line"/>
      <point x="3" y="535" type="line"/>
    </contour>
    <contour>
      <point x="3" y="1" type="line"/>
      <point x="3" y="532" type="line"/>
      <point x="90" y="532" type="line"/>
      <point x="90" y="1" type="line"/>
    </contour>
    <contour>
      <point x="3" y="-377" type="line"/>
      <point x="3" y="-1" type="line"/>
      <point x="90" y="-1" type="line"/>
      <point x="90" y="-377" type="line"/>
    </contour>
  </outline>
</glyph>
